<!-- icon666.com - MILLIONS vector ICONS FREE --><svg id="Ebene_1" enable-background="new 0 0 100 100" viewBox="0 0 100 100" xmlns="http://www.w3.org/2000/svg"><path d="m98.115 65.992c-4.169-3.256-8.66-5.542-13.361-6.832 2.635-5.45 4.023-11.582 4.023-17.907 0-2.72-.268-5.566-.796-8.46-.089-.489-.493-.879-1.023-.819-7.922.32-14.986 2.424-21.046 6.215-2.061-9.506-7.309-18.127-15.256-25.006-.375-.326-.933-.326-1.309 0-4.972 4.305-8.898 9.298-11.669 14.84-1.631 3.262-2.828 6.67-3.588 10.158-3.775-2.318-7.957-4.022-12.46-5.061-2.788-.647-5.678-1.034-8.591-1.15-.485-.018-.936.332-1.024.822-.525 2.929-.791 5.777-.791 8.465 0 6.233 1.355 12.276 3.917 17.667-2.906.742-4.998 1.895-7.812 3.46l-.149.083c-.11.062-.231.134-.273.166-1.705.957-3.394 2.088-5.022 3.36-.243.189-.385.499-.385.807 0 .156.037.311.107.449 1.467 2.915 3.25 5.607 5.3 8.004 6.502 7.615 15.345 11.809 24.898 11.809 2.566 0 5.15-.31 7.678-.92 3.627-.868 7.163-2.338 10.517-4.372 5.696 3.464 11.968 5.292 18.177 5.292 6.617 0 13.002-2.041 18.462-5.902 4.867-3.432 8.821-8.11 11.755-13.908.07-.14.107-.313.107-.471-.001-.308-.143-.599-.386-.789zm-11.339-24.739c0 6.96-1.753 13.669-5.071 19.406-5.883 10.238-16.37 16.991-28.821 18.582 3.927-3.824 7.089-8.109 9.39-12.749.796-1.582 1.48-3.158 2.031-4.677.229-.62.449-1.251.636-1.867 1.305-4.1 1.966-8.373 1.966-12.701 0-2.149-.17-4.325-.506-6.461-.025-.162-.052-.327-.081-.496 5.752-3.774 12.252-5.842 19.843-6.275.407 2.477.613 4.908.613 7.238zm-47.311-12.336c2.53-5.061 6.072-9.647 10.535-13.646 7.624 6.828 12.539 15.356 14.25 24.787.061.343.122.687.175 1.034.32 2.038.482 4.109.482 6.155 0 4.122-.63 8.191-1.876 12.109-.179.591-.385 1.183-.604 1.771-.526 1.451-1.179 2.954-1.942 4.472-2.262 4.562-5.389 8.771-9.296 12.511-.058.043-.12.096-.205.167-.038.028-.075.062-.109.096-.26.266-.545.536-.873.829-.041-.037-.082-.073-.123-.109-.257-.229-.515-.479-.763-.727-.033-.033-.068-.063-.104-.091l-.183-.147c-3.917-3.745-7.05-7.96-9.319-12.536-1.009-1.99-1.862-4.091-2.537-6.248-1.888-5.946-2.359-12.088-1.399-18.256.641-4.192 1.95-8.287 3.891-12.171zm-25.63 5.094c2.49.147 4.956.502 7.343 1.057 4.55 1.05 8.751 2.812 12.506 5.223-.027.164-.06.328-.085.493-1.007 6.473-.513 12.921 1.468 19.161.707 2.259 1.602 4.463 2.657 6.543 2.302 4.644 5.466 8.93 9.393 12.756-12.448-1.589-22.941-8.344-28.823-18.588-3.318-5.735-5.071-12.444-5.071-19.4 0-2.306.206-4.738.612-7.245zm25.18 50.186c-2.376.573-4.802.864-7.21.864-8.958 0-17.261-3.944-23.378-11.108-1.776-2.076-3.341-4.388-4.662-6.882 1.347-1.01 2.738-1.92 4.187-2.736.065-.044.138-.087.201-.122l.147-.082c2.932-1.631 4.883-2.713 7.777-3.383.164.301.312.611.484.908 6.198 10.793 17.235 17.909 30.322 19.574-2.544 1.328-5.18 2.324-7.868 2.967zm46.469-4.672c-5.122 3.622-11.107 5.536-17.309 5.536-5.095 0-10.24-1.328-15.044-3.836 13.07-1.663 24.105-8.777 30.306-19.568.129-.223.24-.457.364-.683 4.356 1.132 8.533 3.172 12.432 6.095-2.741 5.17-6.354 9.358-10.749 12.456z"></path></svg>