<svg id="Слой_1" data-name="Слой 1" xmlns="http://www.w3.org/2000/svg" viewBox="0 0 368.34 24.44"><defs><style>.cls-1{fill:none;stroke:#4d4d4d;}</style></defs><title>separator</title><path d="M172,12.22h0A12.22,12.22,0,0,0,184.17,0h0a12.22,12.22,0,0,0,12.22,12.22h0a12.22,12.22,0,0,0-12.22,12.22h0A12.22,12.22,0,0,0,172,12.22Z" transform="translate(0)" fill="#4d4d4d"/><path d="M158.15,12.22h0a6.11,6.11,0,0,0,6.11-6.11h0a6.12,6.12,0,0,0,6.11,6.11h0a6.12,6.12,0,0,0-6.11,6.11h0A6.11,6.11,0,0,0,158.15,12.22Z" transform="translate(0)" fill="#4d4d4d"/><path d="M198,12.22h0a6.12,6.12,0,0,0,6.11-6.11h0a6.11,6.11,0,0,0,6.11,6.11h0a6.11,6.11,0,0,0-6.11,6.11h0A6.12,6.12,0,0,0,198,12.22Z" transform="translate(0)" fill="#4d4d4d" /><line class="cls-1" x1="0.77" y1="12.22" x2="151.83" y2="12.22"/><line class="cls-1" x1="367.57" y1="12.22" x2="216.51" y2="12.22"/></svg>